{
  "asset": {
    "version": "2.0",
    "generator": "FaceScan",
    "copyright": "Facebook Inc."
  },
  "accessors": [
    {
      "count": 43686,
      "componentType": 5125,
      "type": "SCALAR",
      "bufferView": 0,
      "max": [
        43685
      ],
      "min": [
        0
      ],
      "name": "None_face_accessor"
    },
    {
      "count": 43686,
      "componentType": 5126,
      "type": "VEC3",
      "bufferView": 1,
      "max": [
        9.880117416381836,
        171.01947021484375,
        16.51541519165039
      ],
      "min": [
        -9.880229949951172,
        139.4368896484375,
        -5.166101932525635
      ],
      "name": "None_vertex_accessor"
    },
    {
      "count": 43686,
      "componentType": 5126,
      "type": "VEC3",
      "bufferView": 2,
      "max": [
        0.9985171556472778,
        0.9977226853370667,
        0.99604332447052
      ],
      "min": [
        -0.9985139966011047,
        -0.9895767569541931,
        -0.9929988384246826
      ],
      "name": "None_normal_accessor"
    }
  ],
  "animations": [],
  "buffers": [
    {
      "byteLength": 174744,
      "uri": "data:application/gltf-buffer;base64,"
    },
    {
      "byteLength": 524232,
      "uri": "data:application/gltf-buffer;base64,"
    },
    {
      "byteLength": 524232,
      "uri": "data:application/gltf-buffer;base64,"
    }
  ],
  "bufferViews": [
    {
      "buffer": 0,
      "byteLength": 174744,
      "name": "None_face_view"
    },
    {
      "buffer": 1,
      "byteLength": 524232,
      "name": "None_vertex_view"
    },
    {
      "buffer": 2,
      "byteLength": 524232,
      "name": "None_normal_view"
    }
  ],
  "images": [],
  "materials": [],
  "meshes": [
    {
      "extras": {},
      "primitives": [
        {
          "attributes": {
            "POSITION": 1,
            "NORMAL": 2
          },
          "indices": 0,
          "targets": [],
          "mode": 4
        }
      ],
      "weights": [],
      "name": "None_mesh"
    }
  ],
  "nodes": [
    {
      "name": "mesh_node",
      "mesh": 0
    }
  ],
  "scenes": [
    {
      "nodes": [
        0
      ],
      "name": "None_scene"
    }
  ],
  "skins": [],
  "textures": []
}